# xmcd
#
# Track frame offsets: 
#        150
#        17809
#        35349
#        64821
#        88820
#        115896
#        142819
#        184530
#
# Disc length: 2953 seconds
#
# Revision: 0
# Processed by: cddbd v1.5.2PL0 Copyright (c) Steve Scherf et al.
# Submitted via: ExactAudioCopy v0.95b4
#
DISCID=630b8708
DTITLE=040 feat Erica Baxter - Dreams
DYEAR=1900
DGENRE=
TTITLE0=MarcAurel Radio Mix
TTITLE1=Vocal Radio Edit
TTITLE2=MarcAurel Extended Mix
TTITLE3=Future Pop Club mix
TTITLE4=Summer 2040 Remix
TTITLE5=2M Mix
TTITLE6=P.U.M.P. Remix
TTITLE7=The video
EXTD=
EXTT0=
EXTT1=
EXTT2=
EXTT3=
EXTT4=
EXTT5=
EXTT6=
EXTT7=
PLAYORDER=
